<?xml version="1.0" encoding="UTF-8" standalone="no"?>
<!DOCTYPE svg PUBLIC "-//W3C//DTD SVG 1.1//EN" "http://www.w3.org/Graphics/SVG/1.1/DTD/svg11.dtd">
<svg width="100%" height="100%" viewBox="0 0 2048 436" version="1.1" xmlns="http://www.w3.org/2000/svg" xmlns:xlink="http://www.w3.org/1999/xlink" xml:space="preserve" xmlns:serif="http://www.serif.com/" style="fill-rule:evenodd;clip-rule:evenodd;stroke-linejoin:round;stroke-miterlimit:2;">
    <g transform="matrix(1,0,0,0.566804,0,0)">
        <rect id="Tavola-da-disegno1" serif:id="Tavola da disegno1" x="0" y="0" width="2048" height="768" style="fill:none;"/>
        <clipPath id="_clip1">
            <rect id="Tavola-da-disegno11" serif:id="Tavola da disegno1" x="0" y="0" width="2048" height="768"/>
        </clipPath>
        <g clip-path="url(#_clip1)">
            <g transform="matrix(1,0,0,1.37834,-10,-290.567)">
                <g transform="matrix(0.728894,0,0,0.932984,312.44,39.4295)">
                    <path d="M647.755,787.339C644.203,795.702 634.53,799.609 626.166,796.057C617.803,792.505 613.896,782.832 617.448,774.468C684.235,617.196 803.838,568.534 950.396,550.215C1050.75,537.671 1131.35,548.246 1217.24,604.342C1239.35,618.782 1308.79,673.494 1348.46,720.054C1368.26,743.288 1380.16,765.597 1380.16,780.903C1380.16,789.99 1372.79,797.367 1363.7,797.367C1354.61,797.367 1347.24,789.99 1347.24,780.903C1347.24,776.767 1344.88,771.988 1341.73,766.48C1337.29,758.726 1330.93,750.249 1323.4,741.409C1285.86,697.351 1220.15,645.573 1199.23,631.909C1120.5,580.482 1046.48,571.387 954.48,582.887C819.9,599.709 709.084,642.919 647.755,787.339Z"/>
                </g>
                <g transform="matrix(0.728894,0,0,0.932984,312.44,39.4295)">
                    <path d="M947.758,665.202C940.186,665.202 934.039,659.054 934.039,651.483C934.039,643.911 940.186,637.763 947.758,637.763L950.377,637.763C957.949,637.763 964.097,643.911 964.097,651.483C964.097,659.054 957.949,665.202 950.377,665.202L947.758,665.202Z"/>
                </g>
                <g transform="matrix(0.728894,0,0,0.932984,312.44,39.4295)">
                    <path d="M1095.16,616.379C1101.12,617.873 1105.54,623.269 1105.54,629.687C1105.54,637.259 1099.39,643.407 1091.82,643.407C1091.21,643.407 1090.21,643.076 1089.07,642.58C1085.75,642.439 1082.48,641.104 1079.95,638.576C1074.6,633.222 1074.6,624.528 1079.95,619.174C1083.34,615.787 1086.75,614.98 1089.62,614.843C1091.22,614.767 1093.23,615.458 1095.16,616.379ZM1087.11,641.656C1084.07,640.13 1080.88,638.16 1080.88,638.16C1080.88,638.16 1084.21,640.53 1087.11,641.656ZM1095.1,641.469C1096.49,640.91 1097.93,640.004 1099.35,638.576C1098.09,639.838 1096.64,640.802 1095.1,641.469Z"/>
                </g>
                <g transform="matrix(0.728894,0,0,0.932984,312.44,39.4295)">
                    <path d="M1017.07,731.313C1015.81,730.674 1014.62,729.828 1013.57,728.774C1008.22,723.42 1008.22,714.726 1013.57,709.372C1015.72,707.224 1021.45,702.324 1030.14,707.128C1030.93,707.564 1034.4,710.764 1042.07,711.715C1047.97,712.447 1055.4,712.413 1061.87,710.204C1066.19,708.727 1070.17,706.178 1071.59,701.182C1073.65,693.898 1081.25,689.662 1088.53,691.729C1095.82,693.797 1100.05,701.389 1097.98,708.673C1093.85,723.255 1083.36,731.86 1070.73,736.171C1060.25,739.749 1048.25,740.131 1038.69,738.946C1027.71,737.584 1019.46,732.823 1017.07,731.313ZM1027.38,732.165C1029.62,731.479 1031.45,730.293 1032.97,728.774C1031.35,730.395 1029.42,731.525 1027.38,732.165Z"/>
                </g>
            </g>
            <g transform="matrix(1.13338,0,0,1.56218,292.114,-420.219)">
                <g transform="matrix(1.02328,0,0,1.3098,-21.0636,4.65476)">
                    <path d="M295.511,378.101C295.511,367.756 294.789,361.46 301.529,352.134C304.222,348.408 308.883,345.494 312.685,343.321C325.042,336.26 336.581,335.63 345.63,339.617C354.773,343.644 361.979,352.595 364.702,366.548C366.377,375.135 362.535,382.714 355.593,388.567C347.87,395.079 336.144,399.285 329.78,400.68C325.625,401.591 314.673,400.437 306.657,395.693C300.02,391.766 295.511,385.733 295.511,378.101ZM312.756,378.101C312.756,378.847 313.361,379.31 313.912,379.781C314.937,380.656 316.205,381.333 317.515,381.893C320.848,383.316 324.495,384.184 326.088,383.835C330.605,382.845 338.995,380.006 344.476,375.384C346.353,373.801 348.229,372.172 347.776,369.851C346.367,362.63 343.41,357.483 338.678,355.398C333.853,353.273 327.829,354.529 321.241,358.294C319.38,359.357 316.824,360.412 315.505,362.236C311.434,367.869 312.756,371.852 312.756,378.101Z" style="fill:rgb(247,116,186);"/>
                </g>
                <g transform="matrix(0.85286,0,0,1.09166,35.2185,85.1706)">
                    <path d="M336.601,332.966C336.783,332.134 336.98,331.377 337.149,331.038C338.817,327.701 339.768,323.093 340.263,319.295C341.593,309.088 337.503,297.617 331.932,289.327C331.141,288.151 329.321,285.678 328.39,284.421C320.866,286.341 317.171,291.683 315.627,298.095C313.382,307.416 314.82,318.521 316.914,327.67C317.521,330.325 319.419,333.234 320.719,336.123C322.428,339.924 323.5,343.714 323.5,347.125C323.501,352.835 318.866,357.471 313.156,357.472C307.446,357.472 302.81,352.837 302.81,347.127C302.81,345.306 301.296,343.415 300.298,341.378C298.771,338.26 297.398,335.14 296.744,332.287C293.982,320.217 292.55,305.549 295.511,293.251C299.051,278.55 308.16,266.756 326.821,263.626C332.275,262.711 337.091,264.422 341.151,267.836C344.451,270.611 347.142,274.866 349.104,277.785C357.29,289.964 362.734,306.971 360.78,321.968C360.005,327.916 358.268,335.066 355.655,340.291C356.054,339.494 356.689,336.305 356.689,336.305C356.689,336.305 355.194,342.484 354.042,343.817C352.01,346.168 349.395,347.461 346.08,347.461C340.37,347.461 335.734,342.825 335.734,337.115C335.734,335.64 336.044,334.236 336.601,332.966Z" style="fill:rgb(247,116,186);"/>
                </g>
                <g transform="matrix(0.85286,0,0,1.09166,35.2185,85.1706)">
                    <path d="M354.512,348.99C350.474,353.027 343.918,353.026 339.881,348.989C335.844,344.951 335.844,338.395 339.882,334.358C343.251,330.99 345.529,327.369 348.234,323.908C351.921,319.19 356.171,314.689 362.845,310.772C376.512,302.753 395.224,298.216 410.795,303.28C425.396,308.029 430.031,319.236 428.785,331.164C427.765,340.926 422.021,351.27 414.906,357.396C409.558,361.999 400.598,366.401 394.063,368.868C383.156,372.987 371.661,377.078 359.952,377.078C354.242,377.078 349.606,372.443 349.606,366.733C349.606,361.023 354.242,356.387 359.952,356.387C369.186,356.387 378.152,352.76 386.754,349.512C391.313,347.79 397.676,344.926 401.407,341.715C404.86,338.742 407.711,333.753 408.206,329.015C408.475,326.442 407.545,323.981 404.395,322.956C394.26,319.66 382.213,323.397 373.317,328.617C368.304,331.559 365.61,335.171 362.938,338.751C360.364,342.2 357.835,345.667 354.512,348.99Z" style="fill:rgb(247,116,186);"/>
                </g>
                <g transform="matrix(0.85286,0,0,1.09166,35.2185,85.1706)">
                    <path d="M362.796,405.877C364.407,407.029 376.577,415.597 385.266,417.793C386.996,418.231 388.684,418.524 390.265,418.543C391.336,418.556 392.483,418.781 392.924,417.77C395.636,411.555 393.329,404.986 389.666,399.038C384.993,391.45 377.742,384.811 371.006,380.558C368.828,379.183 367.039,377.376 364.335,377.967C358.757,379.188 353.237,375.651 352.017,370.073C350.796,364.495 354.334,358.976 359.911,357.755C368.517,355.872 375.124,358.688 382.052,363.062C393.118,370.049 405.03,381.897 410.832,394.866C415.378,405.028 416.34,415.84 411.888,426.045C406.604,438.156 394.253,441.407 380.195,437.853C369.848,435.238 358.703,428.999 352.275,424.095C348.133,420.935 345.638,417.813 344.74,416.004C342.891,412.283 339.853,407.878 337.71,403.362C335.607,398.927 334.29,394.366 334.29,390.025C334.29,384.316 338.925,379.68 344.635,379.68C350.345,379.68 354.98,384.316 354.98,390.025C354.98,392.1 356.183,394.172 357.303,396.266C359.122,399.669 361.252,402.957 362.796,405.877Z" style="fill:rgb(247,116,186);"/>
                </g>
                <g transform="matrix(0.85286,0,0,1.09166,35.2185,85.1706)">
                    <path d="M321.964,441.787C325.862,438.388 328.008,432.807 329.589,428.095C332.442,419.593 329.779,407.636 329.779,398.76C329.779,393.05 334.415,388.415 340.125,388.415C345.834,388.415 350.47,393.05 350.47,398.76C350.47,409.634 352.7,424.26 349.205,434.677C346.088,443.967 340.549,454.403 332.058,460.063C330.104,461.366 327.42,462.3 324.292,462.509C321.537,462.693 318.064,462.123 316.173,462.123C303.63,462.123 292.887,460.123 284.663,450.6C274.033,438.293 275.235,419.065 278.733,404.978C281.095,395.47 287.138,388.342 295.167,382.99C299.918,379.823 306.346,381.108 309.513,385.859C312.681,390.61 311.395,397.038 306.644,400.206C302.984,402.646 299.891,405.631 298.814,409.966C297.635,414.713 296.575,420.344 296.762,425.832C296.902,429.92 297.653,433.987 300.322,437.076C304.351,441.742 310.028,441.432 316.173,441.432C317.322,441.432 320.395,441.663 321.964,441.787Z" style="fill:rgb(247,116,186);"/>
                </g>
                <g transform="matrix(0.85286,0,0,1.09166,35.2185,85.1706)">
                    <path d="M293.994,347.516C293.336,347.254 290.548,346.164 288.725,345.742C284.096,344.672 279.241,344.133 276.599,343.597C271.278,342.516 264.118,341.136 257.707,341.564C255.016,341.744 252.382,341.932 250.784,343.64C249.193,345.341 249.391,348.151 250.114,352.272C250.68,355.498 252.599,363.32 259.784,368.047C260.28,368.178 265.001,369.412 268.776,369.846C277.23,370.82 288.317,370.929 297.649,369.66C303.307,368.891 308.525,372.859 309.294,378.517C310.064,384.175 306.095,389.393 300.437,390.162C287.548,391.915 271.833,391.448 261.536,389.719C255.654,388.732 251.195,387.119 248.831,385.604C234.944,376.709 230.813,361.996 229.734,355.847C227.48,342.995 230.712,334.81 235.672,329.507C240.347,324.508 247.168,321.773 254.941,321.032C263.563,320.209 273.468,321.847 280.717,323.32C284.859,324.161 293.828,325.155 300.197,327.616C304.983,329.465 308.632,332.238 310.692,335.329C313.86,340.08 312.574,346.508 307.823,349.675C303.319,352.679 297.305,351.678 293.994,347.516Z" style="fill:rgb(247,116,186);"/>
                </g>
            </g>
            <g transform="matrix(0.847493,-0.413293,0.183012,1.16814,-69.788,282.731)">
                <g transform="matrix(1,0,0,1.28,0,0)">
                    <path d="M1379.22,335.815C1383.44,332.619 1387.58,329.587 1390.54,327.674C1392.63,326.327 1394.56,325.424 1396.2,324.835C1396.14,324.85 1396.11,324.858 1396.11,324.858C1396.11,324.858 1400.96,322.672 1401.67,322.552C1406.76,321.688 1409.89,323.943 1411.68,325.73C1414.04,328.091 1416.64,333.689 1417.6,341.405C1418.29,346.895 1418.5,354.001 1418.85,360.384C1419.72,359.937 1420.6,359.559 1421.49,359.261C1424.12,358.385 1427.44,354.771 1429.58,353.178C1434.58,349.468 1437.83,344.858 1442.15,340.537C1448.45,334.241 1453.23,325.784 1459.31,319.697C1463.75,315.258 1470.96,315.258 1475.4,319.697C1479.84,324.135 1479.84,331.342 1475.4,335.781C1469.31,341.868 1464.53,350.325 1458.23,356.621C1453.11,361.746 1449.07,367.034 1443.15,371.435C1439.64,374.042 1433.67,378.937 1429.23,380.644C1428.75,381.09 1426.32,383.361 1424.97,384.573C1421.58,387.626 1417.8,389.825 1413.66,390.516C1408.4,391.392 1400.64,388.989 1398.05,378.121C1396.86,373.099 1396.39,364.308 1395.92,355.702C1395.87,354.652 1395.78,353.519 1395.68,352.36C1388.34,357.832 1378.63,365.064 1376.15,366.922C1368.1,372.932 1360.79,366.805 1360.43,366.442C1358.82,364.833 1357.34,362.447 1356.63,359.249C1355.88,355.801 1356.47,349.71 1356.47,347.241L1356.47,335.822C1356.47,330.23 1356.98,324.292 1357.55,318.703C1358.38,310.573 1361.24,302.935 1361.24,294.701C1361.24,288.424 1366.34,283.328 1372.62,283.328C1378.89,283.328 1383.99,288.424 1383.99,294.701C1383.99,303.711 1381.09,312.104 1380.18,321C1379.69,325.837 1379.22,330.974 1379.22,335.815Z" style="fill:rgb(247,116,186);"/>
                </g>
                <g transform="matrix(1,0,0,1.28,0,0)">
                    <path d="M1479.28,332.509C1476.81,331.645 1468.52,328.811 1463.51,327.887C1461.37,327.492 1458.58,327.23 1457.13,327.111C1454.24,328.24 1450.89,328.189 1447.9,326.693C1442.29,323.885 1440.01,317.048 1442.82,311.434C1444.09,308.885 1446.81,305.635 1452.34,304.621C1456.14,303.922 1465.18,304.742 1473.99,306.877C1483.08,309.079 1491.75,312.752 1494.95,315.582C1498.66,318.868 1499.73,322.61 1499.73,325.661C1499.73,331.938 1494.63,337.034 1488.35,337.034C1484.65,337.034 1481.35,335.257 1479.28,332.509ZM1459.32,325.968C1461.4,324.781 1462.48,322.96 1463.16,321.606C1462.25,323.434 1460.9,324.908 1459.32,325.968Z" style="fill:rgb(247,116,186);"/>
                </g>
                <g transform="matrix(1,0,0,1.28,0,0)">
                    <path d="M1350.97,290.064C1344.69,290.064 1339.6,284.968 1339.6,278.691C1339.6,272.414 1344.69,267.318 1350.97,267.318C1356.59,267.318 1363.15,269.688 1370.09,273.045C1376.36,276.082 1383.14,280.358 1390.13,280.358C1396.4,280.358 1401.5,285.454 1401.5,291.731C1401.5,298.008 1396.4,303.104 1390.13,303.104C1381.25,303.104 1372.31,299.447 1364.08,295.431C1359.16,293.031 1354.83,290.064 1350.97,290.064Z" style="fill:rgb(247,116,186);"/>
                </g>
                <g transform="matrix(1,0,0,1.28,0,0)">
                    <path d="M1479.43,394.092C1477.81,393.553 1476.28,392.637 1474.99,391.346C1470.55,386.907 1470.55,379.7 1474.99,375.262C1476.49,373.763 1478.57,372.421 1481.54,372.004C1482.73,371.836 1487.07,371.975 1491.77,374.775C1496.48,377.582 1502.6,383.213 1504.22,386.825C1506.12,391.049 1505.68,394.886 1504.12,398.022C1501.89,402.467 1495.87,409.699 1489.74,416.856C1485.64,421.65 1480.16,429.152 1479.16,430.535C1478.25,435.905 1473.57,440 1467.94,440C1461.67,440 1456.57,434.904 1456.57,428.627C1456.57,425.236 1458.81,419.218 1463.65,412.793C1468.05,406.964 1474.81,399.815 1479.43,394.092ZM1485.17,394.474C1487.88,394.016 1489.76,392.664 1491.07,391.346C1489.4,393.02 1487.33,394.062 1485.17,394.474Z" style="fill:rgb(247,116,186);"/>
                </g>
                <g transform="matrix(1,0,0,1.28,0,0)">
                    <path d="M1477.31,432.294C1483.4,432.5 1488.29,437.514 1488.29,443.661C1488.29,449.938 1483.19,455.034 1476.92,455.034C1470.46,455.034 1463.2,451.084 1456.32,445.165C1453.13,442.427 1449.92,439.328 1446.7,436.933C1445.45,436.006 1444.48,434.809 1443.26,434.809C1436.98,434.809 1431.88,429.713 1431.88,423.436C1431.88,417.159 1436.98,412.063 1443.26,412.063C1450.03,412.063 1457.39,416.038 1464.28,421.89C1467.55,424.668 1470.79,427.808 1473.99,430.24C1475.05,431.045 1476.95,432.099 1477.31,432.294Z" style="fill:rgb(247,116,186);"/>
                </g>
                <g transform="matrix(1,0,0,1.28,0,0)">
                    <path d="M1512.5,343.512C1513.67,343.125 1515,342.793 1516.1,342.793C1522.38,342.793 1527.48,347.889 1527.48,354.166C1527.48,359.429 1523.89,363.861 1519.04,365.156C1517.75,365.633 1516.09,366.091 1514.45,366.091C1508.17,366.091 1503.08,360.995 1503.08,354.718C1503.08,349.106 1507.15,344.437 1512.5,343.512ZM1510.84,344.124C1510.04,344.429 1509.51,344.707 1509.51,344.707C1509.51,344.707 1510.04,344.45 1510.84,344.124Z" style="fill:rgb(247,116,186);"/>
                </g>
                <g transform="matrix(1,0,0,1.28,0,0)">
                    <path d="M1528.83,460.732C1529.61,458.727 1530.5,456.881 1531.55,455.349C1535.1,450.172 1539.8,444.865 1543.85,440.045C1548.85,434.1 1549.23,425.962 1550.91,418.44C1552.43,411.634 1554.51,405.123 1558.21,399.486C1557.89,399.231 1557.59,398.956 1557.29,398.662C1552.85,394.224 1552.85,387.017 1557.29,382.578C1559.69,380.178 1563.79,378.078 1569.47,379.323C1573.45,380.194 1581.07,384.823 1583,385.907C1582.69,385.735 1581.85,385.357 1581.85,385.357C1581.85,385.357 1587.03,388.651 1587.9,389.932C1588.78,391.214 1589.32,392.547 1589.62,393.875C1590.38,397.178 1590.16,400.946 1586.52,404.581C1585.16,405.937 1583.65,407.09 1582.03,408.154C1580.71,409.013 1579.09,409.545 1577.93,410.992C1573.15,416.972 1572.85,425.19 1571.09,432.825C1569.26,440.799 1566.55,448.388 1561.26,454.681C1557.67,458.951 1553.46,463.615 1550.32,468.201C1549.23,469.795 1548.95,472.309 1548.19,474.48C1548.06,474.855 1547.92,475.225 1547.78,475.59C1548.49,476.088 1549.04,476.514 1549.38,476.844C1552.89,480.222 1553.25,483.76 1553.25,485.586C1553.25,491.863 1548.15,496.959 1541.87,496.959C1538.5,496.959 1535.47,495.49 1533.39,493.159C1531.27,491.848 1520.01,484.841 1516.52,481.84C1515.12,480.63 1511.96,477.909 1511.12,476.649C1510.11,475.145 1509.61,473.717 1509.35,472.556C1508.44,468.499 1509.57,465.229 1511.76,462.612C1513.21,460.893 1515.75,458.452 1520.83,458.452C1522.17,458.452 1524.36,458.747 1526.94,459.847C1527.45,460.061 1528.1,460.369 1528.83,460.732Z" style="fill:rgb(247,116,186);"/>
                </g>
                <g transform="matrix(1,0,0,1.28,0,0)">
                    <path d="M1573.57,429.66C1575.19,429.672 1583.32,429.733 1584.91,429.733C1594.59,429.733 1604.68,427.58 1614.13,427.58C1620.4,427.58 1625.5,432.676 1625.5,438.953C1625.5,445.23 1620.4,450.326 1614.13,450.326C1604.68,450.326 1594.59,452.479 1584.91,452.479C1582.75,452.479 1572.53,452.464 1570.72,452.258C1560.1,451.048 1560.28,440.707 1560.51,439.188C1560.82,437.162 1561.65,434.919 1563.72,432.845C1566.4,430.164 1570.09,429.102 1573.57,429.66ZM1581.84,435.606C1582.88,437.597 1583.29,439.834 1583.08,442.02C1583.3,439.879 1582.98,437.717 1581.84,435.606ZM1582.88,443.28C1582.44,445.351 1581.41,447.321 1579.8,448.929C1581.64,447.089 1582.5,445.115 1582.88,443.28Z" style="fill:rgb(247,116,186);"/>
                </g>
                <g transform="matrix(1,0,0,1.28,0,0)">
                    <path d="M1596.37,499.189C1598.7,499.918 1600.61,501.121 1602.1,502.612C1606.54,507.049 1606.54,514.256 1602.11,518.695C1598.72,522.082 1593.72,522.885 1589.57,521.106C1588.17,521.071 1585.68,520.978 1584.47,520.75C1581.31,520.155 1578.83,518.74 1577.03,516.943C1576.64,516.554 1573.86,513.949 1573.61,508.425C1573.37,503.005 1573.7,477.221 1573.7,472.533C1573.7,468.769 1571.51,457.549 1571.04,455.184C1570.17,453.574 1569.67,451.732 1569.67,449.774C1569.67,443.497 1574.77,438.401 1581.05,438.401C1583.31,438.401 1588.77,438.964 1591.76,445.528C1593.28,448.848 1596.45,465.744 1596.45,472.533C1596.45,475.549 1596.4,489.86 1596.37,499.189ZM1577.62,460.62C1578.79,460.996 1579.94,461.147 1581.05,461.147C1579.85,461.147 1578.7,460.962 1577.62,460.62Z" style="fill:rgb(247,116,186);"/>
                </g>
                <g transform="matrix(1,0,0,1.28,0,0)">
                    <path d="M1639.21,529.711C1640.33,527.98 1643.58,522.981 1644.52,521.767C1647.86,517.493 1650.56,512.098 1653.17,507.222C1654.22,505.273 1655.75,503.094 1657.15,501.254C1653.24,499.454 1650.52,495.5 1650.52,490.917C1650.52,484.64 1655.62,479.544 1661.89,479.544C1663.56,479.544 1665.87,479.931 1668.34,481.271C1670.43,482.406 1673.58,485.177 1674.35,485.766C1680.73,490.663 1682.28,495.411 1682.52,499.218C1682.73,502.462 1681.93,505.679 1679.96,508.916C1678.47,511.343 1675.37,513.951 1673.22,517.974C1670,523.967 1666.55,530.516 1662.45,535.77C1661.02,537.594 1657.49,543.735 1655.15,546.151C1651.73,549.67 1647.98,550.477 1645.62,550.477C1639.35,550.477 1634.25,545.381 1634.25,539.104C1634.25,535.204 1636.22,531.76 1639.21,529.711Z" style="fill:rgb(247,116,186);"/>
                </g>
                <g transform="matrix(1,0,0,1.28,0,0)">
                    <path d="M1653.86,542.147C1658.37,543.659 1661.62,547.919 1661.62,552.932C1661.62,559.209 1656.52,564.305 1650.25,564.305C1648.56,564.305 1644.73,563.532 1640.34,560.534C1633.9,556.125 1621.42,544.867 1617.99,542.579C1612.77,539.097 1611.36,532.03 1614.84,526.807C1618.32,521.584 1625.39,520.171 1630.61,523.653C1634.08,525.967 1651.48,540.191 1653.86,542.147Z" style="fill:rgb(247,116,186);"/>
                </g>
                <g transform="matrix(1,0,0,1.28,0,0)">
                    <path d="M1687.98,457.106C1687.64,458.021 1687.4,459.219 1687.4,460.838C1687.4,459.314 1687.7,457.859 1688.24,456.53C1688.37,456.272 1688.5,456.041 1688.61,455.829C1689.54,454.143 1691.73,452.2 1691.73,452.2C1691.73,452.2 1690.15,453.576 1689.4,454.633C1689.14,455.01 1688.77,455.471 1688.42,456.123C1690.21,452.196 1694.18,449.465 1698.77,449.465C1705.05,449.465 1710.14,454.561 1710.14,460.838C1710.14,464.253 1709.2,465.987 1708.46,467.08C1706.51,470.535 1702.8,472.869 1698.55,472.869C1692.28,472.869 1687.18,467.772 1687.18,461.496C1687.18,459.489 1687.55,458.117 1687.98,457.106ZM1687.98,457.106C1688.12,456.735 1688.27,456.41 1688.42,456.123C1688.36,456.257 1688.3,456.393 1688.24,456.53C1688.15,456.708 1688.07,456.9 1687.98,457.106ZM1709.29,465.24C1709.64,464.338 1709.92,463.15 1709.92,461.496C1709.92,462.807 1709.7,464.067 1709.29,465.24Z" style="fill:rgb(247,116,186);"/>
                </g>
            </g>
            <g transform="matrix(0.994171,0.190223,-0.0842338,1.37031,-12.9203,-202.153)">
                <g transform="matrix(1,0,0,1.28,0,0)">
                    <path d="M132.07,416.792C132.07,422.311 127.589,426.792 122.07,426.792C116.551,426.792 112.07,422.311 112.07,416.792C112.07,398.643 113.158,380.549 118.715,363.032C125.546,341.495 134.732,318.844 149.458,301.292C197.289,244.286 258.605,223.5 331.339,223.5C336.858,223.5 341.339,227.981 341.339,233.5C341.339,239.019 336.858,243.5 331.339,243.5C264.817,243.5 208.525,262.01 164.779,314.148C151.71,329.724 143.841,349.965 137.778,369.079C132.85,384.618 132.07,400.692 132.07,416.792Z" style="fill:rgb(247,116,186);"/>
                </g>
                <g transform="matrix(1,0,0,1.28,0,0)">
                    <path d="M174.672,422.365C174.672,427.884 170.191,432.365 164.672,432.365C159.153,432.365 154.672,427.884 154.672,422.365C154.672,403.525 163.338,359.346 176.535,342.708C201.836,310.81 245.106,286.449 282.942,273.836C290.123,271.442 298.443,270.925 307.031,271.34C317.791,271.86 329.024,273.887 338.197,273.887C343.716,273.887 348.197,278.368 348.197,283.887C348.197,289.406 343.716,293.887 338.197,293.887C330.186,293.887 320.671,292.466 311.197,291.666C303.44,291.01 295.701,290.665 289.267,292.809C254.834,304.288 215.229,326.107 192.204,355.137C181.104,369.131 174.672,406.519 174.672,422.365Z" style="fill:rgb(247,116,186);"/>
                </g>
                <g transform="matrix(1,0,0,1.28,0,0)">
                    <path d="M202.896,424.542C203.073,423.16 204.305,413.686 205.238,410.583C208.883,398.461 213.387,384.499 219.611,373.429C239.619,337.846 281.355,318.085 320.883,318.085C325.492,318.085 332.877,317.112 339.659,317.137C345.897,317.161 351.711,318.102 355.829,320.16C360.765,322.629 362.769,328.64 360.301,333.577C357.833,338.513 351.821,340.517 346.884,338.049C344.362,336.787 340.452,337.049 336.57,337.192C330.703,337.407 324.808,338.085 320.883,338.085C288.269,338.085 253.552,353.872 237.044,383.231C231.506,393.081 227.634,405.556 224.391,416.342C223.512,419.264 223.486,424.748 222.497,428.788C221.55,432.655 219.861,435.751 217.872,437.74C213.969,441.643 207.633,441.643 203.73,437.74C200.128,434.138 199.851,428.464 202.896,424.542Z" style="fill:rgb(247,116,186);"/>
                </g>
            </g>
            <g transform="matrix(0.760649,0,0,1.04843,539.645,-51.1344)">
                <g transform="matrix(1,0,0,1.28,0,0)">
                    <path d="M1709.22,458.133C1700.75,449.67 1697.52,440.798 1697.38,432.6C1697.18,420.48 1704.09,408.921 1715.63,401.01C1732.28,389.585 1758.22,386.345 1777.21,399.002C1785.7,404.665 1790.01,413.806 1790.16,424.538C1790.33,436.637 1784.68,451.066 1775.59,461.428C1760.07,479.114 1729.44,478.36 1709.22,458.133ZM1727.81,439.54C1732.67,444.403 1738.7,447.323 1744.51,447.831C1748.83,448.209 1753.06,447.24 1755.83,444.082C1759.92,439.426 1762.89,433.322 1763.69,427.629C1764.06,424.968 1764.63,422.22 1762.62,420.879C1752.71,414.27 1739.2,416.727 1730.5,422.693C1726.81,425.225 1723.6,428.284 1723.67,432.163C1723.71,434.627 1725.27,436.997 1727.81,439.54Z" style="fill:rgb(247,116,186);"/>
                </g>
                <g transform="matrix(1,0,0,1.28,0,0)">
                    <path d="M1748.42,393.608C1748.42,400.864 1742.53,406.755 1735.28,406.755C1728.02,406.755 1722.13,400.864 1722.13,393.608C1722.13,366.046 1718.87,347.732 1737.28,323.806C1745.27,313.426 1760.17,307.749 1774.21,308.917C1789.4,310.179 1802.91,318.888 1806.87,334.845C1814.48,365.477 1805.75,379.981 1797.91,390.823C1796.34,392.994 1794.78,394.96 1793.49,396.908C1792.91,397.783 1792.15,398.486 1792.15,399.507C1792.15,406.763 1786.26,412.653 1779,412.653C1771.74,412.653 1765.85,406.763 1765.85,399.507C1765.85,392.149 1768.87,385.981 1773.57,379.536C1778.86,372.267 1786.91,363.581 1781.35,341.182C1780.3,336.929 1776.08,335.456 1772.04,335.12C1766.85,334.689 1761.07,336.011 1758.12,339.843C1744.04,358.142 1748.42,372.527 1748.42,393.608Z" style="fill:rgb(247,116,186);"/>
                </g>
                <g transform="matrix(0.87862,0,0,1.28,215.669,0)">
                    <path d="M1853.79,418.554C1853.76,418.077 1853.66,416.303 1853.48,415.336C1853.09,413.179 1852.56,411.104 1852.23,409.389C1851.21,404.167 1847,401.45 1841.87,400.119C1836.53,398.734 1830.36,398.585 1824.16,399.137C1814.06,400.038 1803.87,402.862 1796.55,406.635C1793.83,408.036 1791.33,409.162 1790.51,410.814C1787.19,417.457 1778.35,420.482 1770.79,417.564C1763.23,414.647 1759.79,406.884 1763.11,400.241C1765.34,395.769 1769.67,391.119 1776,387.062C1786.7,380.196 1803.95,374.511 1821.13,372.979C1849.92,370.411 1876.8,379.704 1881.72,404.947C1882.96,411.293 1884.77,421.017 1881.91,427.554C1868.96,457.148 1843.45,457.34 1814.31,457.34C1811.51,457.34 1787.66,457.353 1775.01,450.351C1768.02,446.484 1765.92,438.36 1770.32,432.22C1774.72,426.081 1783.97,424.236 1790.96,428.104C1798.4,432.223 1812.66,431.047 1814.31,431.047C1820.73,431.047 1827,431.212 1832.88,430.825C1841.7,430.246 1849.4,428.105 1853.79,418.554Z" style="fill:rgb(247,116,186);"/>
                </g>
                <g transform="matrix(1,0,0,1.28,0,0)">
                    <path d="M1744.5,479.849C1741.62,477.437 1739.79,473.813 1739.79,469.763C1739.79,462.508 1745.68,456.617 1752.93,456.617C1755.31,456.617 1757.99,457.185 1760.73,458.979C1762.55,460.173 1765.5,463.156 1768.22,468.182C1771.83,474.866 1777.08,487.715 1783.63,497.621C1785.3,500.15 1787.04,502.465 1788.9,504.242C1789.62,504.916 1790.2,505.633 1790.97,505.827C1796.76,507.273 1802.83,504.951 1806.85,500.958C1810.31,497.512 1812.18,492.496 1809.9,487.276C1806.82,480.261 1801.08,474.367 1795.09,468.861C1787.6,461.966 1779.56,455.736 1773.5,449.673C1768.37,444.542 1768.37,436.211 1773.51,431.081C1778.64,425.951 1786.97,425.952 1792.1,431.084C1804.99,443.978 1825.79,458.033 1833.98,476.719C1847.85,508.362 1814.87,538.9 1784.6,531.335C1777.48,529.557 1770.3,523.971 1764.25,515.782C1756.06,504.705 1746.48,484.169 1744.5,479.849Z" style="fill:rgb(247,116,186);"/>
                </g>
                <g transform="matrix(1,0,0,1.28,0,0)">
                    <path d="M1733.94,470.713C1733.94,463.457 1739.83,457.566 1747.09,457.566C1754.34,457.566 1760.24,463.457 1760.24,470.713C1760.24,490.639 1756.21,506.471 1746.07,517.179C1738.9,524.75 1728.58,530.199 1713.46,532.169C1713.03,532.225 1712.58,532.294 1712.09,532.372C1697.19,534.755 1675.66,526.597 1671.38,507.139C1669.12,496.843 1672.35,483.43 1678.66,470.656C1686.69,454.392 1699.05,439.053 1703.82,434.286C1708.95,429.155 1717.28,429.155 1722.41,434.286C1727.54,439.417 1727.54,447.747 1722.41,452.878C1718.57,456.723 1708.72,469.179 1702.24,482.298C1698.87,489.124 1695.85,495.989 1697.06,501.49C1697.47,503.339 1698.93,504.423 1700.44,505.166C1702.86,506.356 1705.67,506.771 1707.94,506.408C1708.69,506.288 1709.4,506.183 1710.06,506.096C1717.78,505.091 1723.32,502.961 1726.98,499.099C1733.08,492.656 1733.94,482.701 1733.94,470.713Z" style="fill:rgb(247,116,186);"/>
                </g>
                <g transform="matrix(1,0,0,1.28,0,0)">
                    <path d="M1705.94,427.755C1712.9,429.782 1716.91,437.084 1714.89,444.051C1712.86,451.018 1705.56,455.029 1698.59,453.002C1626.44,432.009 1626.25,390.2 1638.11,370.361C1643.29,361.689 1651.6,357.47 1660.07,355.987C1669.9,354.269 1679.61,356.551 1680.27,356.688C1703.15,361.473 1715.63,370.185 1732.29,386.845C1737.42,391.977 1737.42,400.308 1732.29,405.438C1727.15,410.568 1718.82,410.567 1713.69,405.435C1701.19,392.934 1692.06,386.015 1674.89,382.425C1674.6,382.364 1670.96,381.421 1666.73,381.652C1664.66,381.766 1661.98,381.674 1660.68,383.85C1657.98,388.371 1657.64,394.915 1661.68,401.542C1667.73,411.434 1681.4,420.615 1705.94,427.755Z" style="fill:rgb(247,116,186);"/>
                </g>
            </g>
            <g transform="matrix(1,0,0,1.37834,-152.775,-330.855)">
                <g transform="matrix(0.727214,0,0,0.930834,152.276,190.1)">
                    <path d="M579.196,475.387C578.34,474.099 574.802,468.842 572.014,465.691C568.968,462.25 565.974,458.874 564.093,457.933C557.305,454.539 554.55,446.273 557.944,439.484C561.338,432.696 569.604,429.941 576.393,433.335C581.787,436.032 593.868,447.795 600.379,457.316C604.681,463.605 606.475,469.595 606.475,472.909C606.475,480.498 600.313,486.66 592.724,486.66C585.98,486.66 580.364,481.795 579.196,475.387Z"/>
                </g>
                <g transform="matrix(0.727214,0,0,0.930834,152.276,190.1)">
                    <path d="M657.943,447.346C656.323,450.185 645.991,468.448 644.245,475.433C642.404,482.796 634.932,487.279 627.569,485.438C620.206,483.597 615.723,476.125 617.564,468.762C620.084,458.684 632.583,435.402 635.873,430.854C640.468,424.502 646.272,424.479 647.651,424.479C655.241,424.479 661.403,430.64 661.403,438.23C661.403,441.726 660.095,444.918 657.943,447.346Z"/>
                </g>
                <g transform="matrix(0.727214,0,0,0.930834,152.276,190.1)">
                    <path d="M694.291,520.796C691.402,520.724 677.504,520.436 668.803,521.289C663.719,521.787 657.151,523.062 656.454,523.198C649.763,526.223 641.81,523.439 638.498,516.814C635.104,510.026 637.86,501.759 644.648,498.365C646.991,497.194 651.947,495.774 658.317,494.851C669.539,493.224 686.252,492.377 695.441,493.184C703.108,493.857 707.992,496.791 709.79,498.59C715.157,503.956 715.157,512.67 709.79,518.037C705.602,522.225 699.375,523.145 694.291,520.796Z"/>
                </g>
                <g transform="matrix(0.727214,0,0,0.930834,152.276,190.1)">
                    <path d="M603.207,523.655C598.339,518.26 598.504,509.924 603.7,504.728C609.067,499.361 617.781,499.361 623.147,504.728C626.668,508.248 629.191,513.195 630.47,519.097C632.222,527.18 631.431,537.715 631.431,544.441C631.431,552.031 625.269,558.192 617.68,558.192C610.091,558.192 603.929,552.031 603.929,544.441C603.929,540.386 604.394,534.687 604.106,529.275C604.006,527.403 603.349,524.308 603.207,523.655Z"/>
                </g>
                <g transform="matrix(0.727214,0,0,0.930834,152.276,190.1)">
                    <path d="M557.425,500.199C558.16,499.847 561.67,498.17 563.447,497.409C566.753,495.992 570.018,495.228 573.072,495.228C580.661,495.228 586.823,501.39 586.823,508.979C586.823,516.125 581.361,522.004 574.389,522.668C573.453,523.123 570.299,524.647 568.504,525.403C565.116,526.831 561.64,527.679 558.227,527.679C550.638,527.679 544.476,521.517 544.476,513.927C544.476,506.607 550.209,500.615 557.425,500.199Z"/>
                </g>
            </g>
            <g transform="matrix(1,0,0,1.37834,-74.1976,-69.5325)">
                <g transform="matrix(1,0,0,1.28,0,0)">
                    <path d="M1654.01,316.113C1658.48,314.165 1661.95,309.592 1665.13,304.66C1671.55,294.722 1676.2,282.82 1679.82,276.663C1681.93,273.068 1686.05,271.161 1690.16,271.876C1694.27,272.592 1697.5,275.78 1698.27,279.877C1700.83,293.468 1709.84,306.136 1720.75,313.841C1723.74,315.956 1725.34,319.539 1724.91,323.18C1724.48,326.82 1722.1,329.934 1718.69,331.295C1715.14,332.717 1711.95,335.989 1708.96,339.909C1703.37,347.251 1698.91,357.032 1696.38,365.945C1695.18,370.195 1691.33,373.15 1686.91,373.215C1682.49,373.279 1678.56,370.437 1677.23,366.223C1677.23,366.223 1673.66,354.881 1667.38,345.283C1664.35,340.645 1661.06,335.872 1656.47,335.165C1652.07,334.486 1648.65,330.981 1648.08,326.566C1647.51,322.15 1649.93,317.889 1654.01,316.113ZM1675.62,323.93C1677.05,325.271 1678.41,326.738 1679.71,328.309C1682.19,331.308 1684.42,334.682 1686.39,338.083C1688.43,334.41 1690.66,330.926 1693.05,327.791C1694.88,325.395 1696.8,323.2 1698.8,321.243C1694.43,316.758 1690.53,311.674 1687.3,306.199C1685.65,309.34 1683.87,312.508 1681.94,315.505C1679.99,318.526 1677.88,321.369 1675.62,323.93Z"/>
                </g>
                <g transform="matrix(1,0,0,1.28,0,0)">
                    <path d="M1739.23,300.424C1734.22,302.755 1728.27,300.587 1725.94,295.585C1723.61,290.582 1725.78,284.628 1730.78,282.296C1732.06,281.701 1736.18,280.664 1738.55,278.842C1742.93,275.483 1749.21,276.313 1752.57,280.692C1755.93,285.072 1755.1,291.354 1750.72,294.713C1747.14,297.462 1741.15,299.525 1739.23,300.424Z"/>
                </g>
                <g transform="matrix(1,0,0,1.28,0,0)">
                    <path d="M1628.88,289.688C1624.49,286.348 1623.63,280.069 1626.97,275.676C1630.31,271.282 1636.59,270.427 1640.98,273.767C1643.71,275.841 1647.6,277.984 1650.68,279.878C1655.39,282.767 1656.86,288.93 1653.97,293.633C1651.08,298.336 1644.92,299.809 1640.22,296.921C1636.6,294.699 1632.08,292.121 1628.88,289.688Z"/>
                </g>
                <g transform="matrix(1,0,0,1.28,0,0)">
                    <path d="M1649.51,368.305C1646.81,372.872 1640.96,374.561 1636.23,372.057C1631.35,369.479 1629.48,363.423 1632.06,358.544C1633.73,355.377 1639.72,350.523 1642.7,347.382C1646.5,343.378 1652.83,343.212 1656.84,347.01C1660.84,350.809 1661.01,357.144 1657.21,361.148C1655.32,363.134 1650.04,367.831 1649.51,368.305Z"/>
                </g>
                <g transform="matrix(1,0,0,1.28,0,0)">
                    <path d="M1740.19,369.992C1741.78,375.277 1738.78,380.859 1733.49,382.449C1728.21,384.039 1722.63,381.04 1721.04,375.755C1720.4,373.629 1718.76,370.313 1717.17,367.396C1714.54,362.547 1716.33,356.47 1721.18,353.833C1726.03,351.196 1732.1,352.992 1734.74,357.84C1737.04,362.059 1739.26,366.919 1740.19,369.992Z"/>
                </g>
            </g>
            <g transform="matrix(0.755927,-0.909279,0.402643,1.04193,71.8699,719.368)">
                <g transform="matrix(1,0,0,1.28,0,0)">
                    <path d="M971.77,300.471C970.815,305.532 966.366,309.365 961.029,309.365C954.997,309.364 950.099,304.467 950.1,298.434C950.1,292.188 953.786,286.015 960.205,281.807C967.321,277.144 977.541,275.318 983.5,276.808C993.955,279.422 1001.9,287.093 1005.87,296.638C1011.73,310.727 1008.84,328.55 993.72,338.641C988.536,342.101 976.118,345.869 964.292,346.36C955.487,346.726 947.124,345.169 941.672,341.783C926.262,332.212 914.338,310.887 917.359,292.919C919.739,278.762 924.088,268.597 931.632,260.922C938.987,253.439 949.642,248.143 965.922,244.715C971.825,243.471 977.627,247.254 978.87,253.157C980.113,259.06 976.33,264.862 970.427,266.106C959.557,268.395 952.133,271.25 947.222,276.246C942.5,281.05 940.406,287.682 938.916,296.543C937.242,306.504 944.663,317.907 953.205,323.212C955.63,324.718 959.469,324.681 963.385,324.519C970.633,324.217 978.407,322.58 981.585,320.459C987.105,316.774 987.827,310.174 985.688,305.03C984.326,301.754 981.787,298.913 978.198,298.016C977.312,297.794 976.086,298.355 974.851,298.799C973.876,299.149 972.476,300.015 971.77,300.471Z"/>
                </g>
                <g transform="matrix(1,0,0,1.28,0,0)">
                    <path d="M874.885,271.111C870.51,266.957 870.331,260.034 874.485,255.659C878.639,251.284 885.563,251.105 889.937,255.259C893.121,258.282 901.1,264.612 902.745,266.257C907.011,270.523 907.011,277.449 902.745,281.715C898.479,285.981 891.553,285.981 887.287,281.715C885.697,280.125 877.962,274.033 874.885,271.111Z"/>
                </g>
                <g transform="matrix(1,0,0,1.28,0,0)">
                    <path d="M908.702,344.989C908.072,345.433 901.832,349.811 897.983,351.762C892.602,354.49 886.019,352.336 883.291,346.956C880.563,341.576 882.717,334.993 888.097,332.265C892.855,329.852 898.033,325.699 900.289,324.818C905.908,322.624 912.252,325.404 914.446,331.023C916.58,336.487 914.011,342.635 908.702,344.989Z"/>
                </g>
                <g transform="matrix(1,0,0,1.28,0,0)">
                    <path d="M1018.77,342.762C1014.48,338.515 1014.45,331.589 1018.7,327.305C1022.95,323.02 1029.87,322.99 1034.16,327.237C1038.16,331.207 1043.14,338.07 1046.47,343.466C1049.64,348.6 1048.04,355.34 1042.91,358.507C1037.77,361.674 1031.03,360.077 1027.87,354.943C1025.38,350.916 1021.76,345.725 1018.77,342.762Z"/>
                </g>
                <g transform="matrix(1,0,0,1.28,0,0)">
                    <path d="M1024.83,280.785C1019.44,283.488 1012.86,281.303 1010.16,275.91C1007.46,270.517 1009.64,263.944 1015.03,261.241C1021.39,258.054 1027.34,255.372 1033.07,253.054C1038.66,250.79 1045.04,253.492 1047.3,259.084C1049.57,264.675 1046.86,271.053 1041.27,273.316C1036.05,275.431 1030.63,277.879 1024.83,280.785Z"/>
                </g>
            </g>
        </g>
    </g>
</svg>
